<svg width="32" height="32" viewBox="0 0 32 32" fill="none" xmlns="http://www.w3.org/2000/svg">
<path fill-rule="evenodd" clip-rule="evenodd" d="M16 14.4C17.273 14.4 18.4939 13.8943 19.3941 12.9941C20.2943 12.0939 20.8 10.873 20.8 9.6C20.8 8.32696 20.2943 7.10607 19.3941 6.20589C18.4939 5.30572 17.273 4.8 16 4.8C14.727 4.8 13.5061 5.30572 12.6059 6.20589C11.7057 7.10607 11.2 8.32696 11.2 9.6C11.2 10.873 11.7057 12.0939 12.6059 12.9941C13.5061 13.8943 14.727 14.4 16 14.4V14.4ZM4.8 28.8C4.8 27.3292 5.0897 25.8728 5.65255 24.5139C6.21541 23.1551 7.04039 21.9204 8.08041 20.8804C9.12042 19.8404 10.3551 19.0154 11.7139 18.4526C13.0728 17.8897 14.5292 17.6 16 17.6C17.4708 17.6 18.9272 17.8897 20.2861 18.4526C21.6449 19.0154 22.8796 19.8404 23.9196 20.8804C24.9596 21.9204 25.7846 23.1551 26.3475 24.5139C26.9103 25.8728 27.2 27.3292 27.2 28.8H4.8Z" fill="white"/>
</svg>
