<svg width="32" height="32" viewBox="0 0 32 32" fill="none" xmlns="http://www.w3.org/2000/svg">
<path d="M8 4.8C7.15131 4.8 6.33738 5.13714 5.73726 5.73726C5.13714 6.33738 4.8 7.15131 4.8 8V11.2C4.8 12.0487 5.13714 12.8626 5.73726 13.4627C6.33738 14.0629 7.15131 14.4 8 14.4H11.2C12.0487 14.4 12.8626 14.0629 13.4627 13.4627C14.0629 12.8626 14.4 12.0487 14.4 11.2V8C14.4 7.15131 14.0629 6.33738 13.4627 5.73726C12.8626 5.13714 12.0487 4.8 11.2 4.8H8ZM8 17.6C7.15131 17.6 6.33738 17.9371 5.73726 18.5373C5.13714 19.1374 4.8 19.9513 4.8 20.8V24C4.8 24.8487 5.13714 25.6626 5.73726 26.2627C6.33738 26.8629 7.15131 27.2 8 27.2H11.2C12.0487 27.2 12.8626 26.8629 13.4627 26.2627C14.0629 25.6626 14.4 24.8487 14.4 24V20.8C14.4 19.9513 14.0629 19.1374 13.4627 18.5373C12.8626 17.9371 12.0487 17.6 11.2 17.6H8ZM17.6 8C17.6 7.15131 17.9371 6.33738 18.5373 5.73726C19.1374 5.13714 19.9513 4.8 20.8 4.8H24C24.8487 4.8 25.6626 5.13714 26.2627 5.73726C26.8629 6.33738 27.2 7.15131 27.2 8V11.2C27.2 12.0487 26.8629 12.8626 26.2627 13.4627C25.6626 14.0629 24.8487 14.4 24 14.4H20.8C19.9513 14.4 19.1374 14.0629 18.5373 13.4627C17.9371 12.8626 17.6 12.0487 17.6 11.2V8ZM17.6 20.8C17.6 19.9513 17.9371 19.1374 18.5373 18.5373C19.1374 17.9371 19.9513 17.6 20.8 17.6H24C24.8487 17.6 25.6626 17.9371 26.2627 18.5373C26.8629 19.1374 27.2 19.9513 27.2 20.8V24C27.2 24.8487 26.8629 25.6626 26.2627 26.2627C25.6626 26.8629 24.8487 27.2 24 27.2H20.8C19.9513 27.2 19.1374 26.8629 18.5373 26.2627C17.9371 25.6626 17.6 24.8487 17.6 24V20.8Z" fill="white"/>
</svg>
