<svg width="32" height="32" viewBox="0 0 32 32" fill="none" xmlns="http://www.w3.org/2000/svg">
<path fill-rule="evenodd" clip-rule="evenodd" d="M18.384 5.072C17.776 2.576 14.224 2.576 13.616 5.072C13.5252 5.44706 13.3472 5.7954 13.0964 6.08865C12.8455 6.38191 12.529 6.61181 12.1725 6.75963C11.8161 6.90745 11.4298 6.96903 11.045 6.93934C10.6603 6.90966 10.288 6.78955 9.95839 6.5888C7.76319 5.2512 5.25119 7.7632 6.58879 9.9584C7.45279 11.376 6.68639 13.2256 5.07359 13.6176C2.57599 14.224 2.57599 17.7776 5.07359 18.3824C5.44876 18.4733 5.79715 18.6515 6.09041 18.9025C6.38367 19.1535 6.61349 19.4703 6.76118 19.8269C6.90886 20.1836 6.97022 20.57 6.94026 20.9549C6.91031 21.3398 6.78988 21.7121 6.58879 22.0416C5.25119 24.2368 7.76319 26.7488 9.95839 25.4112C10.2879 25.2101 10.6602 25.0897 11.0451 25.0597C11.4299 25.0298 11.8164 25.0911 12.1731 25.2388C12.5297 25.3865 12.8465 25.6163 13.0975 25.9096C13.3485 26.2028 13.5267 26.5512 13.6176 26.9264C14.224 29.424 17.7776 29.424 18.3824 26.9264C18.4736 26.5514 18.652 26.2033 18.903 25.9102C19.1541 25.6172 19.4708 25.3875 19.8273 25.2398C20.1839 25.0922 20.5702 25.0308 20.955 25.0606C21.3397 25.0903 21.712 25.2105 22.0416 25.4112C24.2368 26.7488 26.7488 24.2368 25.4112 22.0416C25.2105 21.712 25.0903 21.3397 25.0606 20.955C25.0308 20.5702 25.0922 20.1839 25.2398 19.8273C25.3875 19.4708 25.6172 19.1541 25.9102 18.903C26.2033 18.652 26.5514 18.4736 26.9264 18.3824C29.424 17.776 29.424 14.2224 26.9264 13.6176C26.5512 13.5267 26.2028 13.3485 25.9096 13.0975C25.6163 12.8465 25.3865 12.5297 25.2388 12.1731C25.0911 11.8164 25.0298 11.4299 25.0597 11.0451C25.0897 10.6602 25.2101 10.2879 25.4112 9.9584C26.7488 7.7632 24.2368 5.2512 22.0416 6.5888C21.7121 6.78989 21.3398 6.91031 20.9549 6.94027C20.57 6.97022 20.1836 6.90886 19.8269 6.76118C19.4703 6.6135 19.1535 6.38367 18.9025 6.09041C18.6515 5.79716 18.4733 5.44876 18.3824 5.0736L18.384 5.072ZM16 20.8C17.273 20.8 18.4939 20.2943 19.3941 19.3941C20.2943 18.4939 20.8 17.273 20.8 16C20.8 14.727 20.2943 13.5061 19.3941 12.6059C18.4939 11.7057 17.273 11.2 16 11.2C14.727 11.2 13.5061 11.7057 12.6059 12.6059C11.7057 13.5061 11.2 14.727 11.2 16C11.2 17.273 11.7057 18.4939 12.6059 19.3941C13.5061 20.2943 14.727 20.8 16 20.8V20.8Z" fill="white"/>
</svg>
