<svg width="32" height="32" viewBox="0 0 32 32" fill="none" xmlns="http://www.w3.org/2000/svg">
<path d="M17.1312 3.66881C16.8312 3.36885 16.4243 3.20035 16 3.20035C15.5757 3.20035 15.1688 3.36885 14.8688 3.66881L3.6688 14.8688C3.37735 15.1706 3.21608 15.5747 3.21973 15.9942C3.22337 16.4138 3.39164 16.8151 3.68829 17.1117C3.98495 17.4084 4.38625 17.5766 4.80576 17.5803C5.22528 17.5839 5.62944 17.4227 5.9312 17.1312L6.4 16.6624V27.2C6.4 27.6244 6.56858 28.0313 6.86863 28.3314C7.16869 28.6314 7.57566 28.8 8 28.8H11.2C11.6244 28.8 12.0313 28.6314 12.3314 28.3314C12.6314 28.0313 12.8 27.6244 12.8 27.2V24C12.8 23.5757 12.9686 23.1687 13.2686 22.8686C13.5687 22.5686 13.9757 22.4 14.4 22.4H17.6C18.0244 22.4 18.4313 22.5686 18.7314 22.8686C19.0314 23.1687 19.2 23.5757 19.2 24V27.2C19.2 27.6244 19.3686 28.0313 19.6686 28.3314C19.9687 28.6314 20.3757 28.8 20.8 28.8H24C24.4243 28.8 24.8313 28.6314 25.1314 28.3314C25.4314 28.0313 25.6 27.6244 25.6 27.2V16.6624L26.0688 17.1312C26.3706 17.4227 26.7747 17.5839 27.1942 17.5803C27.6138 17.5766 28.0151 17.4084 28.3117 17.1117C28.6084 16.8151 28.7766 16.4138 28.7803 15.9942C28.7839 15.5747 28.6227 15.1706 28.3312 14.8688L17.1312 3.66881Z" fill="white"/>
</svg>
